<svg id="svg8" version="1.1" viewBox="0 0 490.44992 457.10571" xmlns="http://www.w3.org/2000/svg"><title id="title2">feelslike</title><g><path id="path864" d="m275.17824 195.30685c-6.34001 6.43205-15.49265 5.92698-22.59819 1.57686m20.5438-33.90245c-1.77641 15.68542-17.24628-3.48744-4.79356-6.30743 2.84245-0.0221 4.85921 3.23579 4.79356 6.30743zm-13.01107 0.7884c-1.7764 15.68543-17.24628-3.48743-4.79355-6.30743 2.84245-0.0221 4.8592 3.23579 4.79355 6.30743zm-231.189703-125.42841c1.724661-36.043185 49.613176-47.3281343 64.11729-15.676849 15.891643 5.515066 43.039333 28.849259 20.215813 50.13797-16.413513 12.359289-36.812144 5.761402-55.266856 7.439792-16.090303-1.534048-34.62894 4.761059-48.136121-7.985687-12.2612214-16.257038 3.686752-34.996524 19.069874-33.915226zm437.306543 30.543649c-0.90756-32.749352-40.19238-49.122129-59.35546-25.211402-8.13576 19.750172-45.40051 21.042248-32.01708 52.95024 11.67399 23.669763 37.02381 15.365493 56.38908 16.909673 16.52032-0.78437 33.46475 1.94439 49.61051-2.27867 13.54622-11.558463 0.93606-42.12919-14.62705-42.369841zm-220.66625 171.975371c-35.60567 2.64305-65.33378 34.90117-80.54041 70.32536-7.96068 22.1507-9.6178 33.99345 9.13426 26.64636 22.4129-22.78036 0.062 7.24598 74.29363 2.77997 74.00684-4.45249 48.40804-26.25019 74.00684-4.45249 18.61865 10.19394-0.61746-36.22756-8.97745-48.73166-16.78045-23.60534-40.27959-45.56284-67.91687-46.56754zm41.3525-67.23172c-3.88867 24.68413-4.29192 39.95885-40.72439 60.35227-27.51651-17.03875-39.33071-44.30858-29.30006-78.33095 5.81843-27.47199 42.36472-29.62242 57.22771-18.78279 11.36176 9.5607 13.63745 23.67817 12.79674 36.76147z" fill="#fff" stroke="#000" stroke-width="7.00000048"/><flowRoot id="flowRoot1448" fill="black" font-family="'Roboto Mono'" font-size="74.66666667px" font-weight="bold" letter-spacing="0px" text-align="center" text-anchor="middle" word-spacing=".03px" style="line-height:2" xml:space="preserve"><flowRegion id="flowRegion1450"><rect id="rect1452" x="2.9053328" y="324.42883" width="393.18839" height="125.89776"/></flowRegion><flowPara id="flowPara1454"/></flowRoot><g id="text2916" stroke-width=".99999994" aria-label="TUNTUU"><path id="path2918" d="m74.415429 366.94676h-30.782653v88.79085h-12.313062v-88.79085h-30.78265302v-10.80814h73.87836802z"/><path id="path2920" d="m153.76627 356.13862 0.13681 67.44822q-0.13681 6.9774-2.53102 13.06552-2.3942 6.08813-6.70377 10.67132-4.30958 4.51479-10.26089 7.18262-5.95131 2.59943-13.06553 2.59943-7.25102 0-13.20233-2.59943-5.95132-2.59942-10.192482-7.11421-4.241165-4.58319-6.635372-10.67132-2.394206-6.15653-2.462612-13.13393l0.136812-67.44822h12.039434l0.27363 67.44822q0.0684 4.44638 1.36811 8.55074 1.36812 4.10435 3.83074 7.25102 2.53101 3.14667 6.22493 5.06204 3.76233 1.91536 8.61914 1.91536 4.85682 0 8.55074-1.84696 3.69392-1.91536 6.15653-5.06203 2.53102-3.21508 3.83073-7.31943 1.29971-4.10436 1.43653-8.55074l0.20521-67.44822z"/><path id="path2922" d="m237.6319 455.73761h-12.86031l-38.64933-74.42562-0.20522 74.42562h-12.7919v-99.59899h12.86031l38.64933 74.28881 0.20522-74.28881h12.7919z"/><path id="path2924" d="m326.42275 366.94676h-30.78265v88.79085h-12.31306v-88.79085h-30.78265v-10.80814h73.87836z"/><path id="path2926" d="m405.77359 356.13862 0.13682 67.44822q-0.13682 6.9774-2.53102 13.06552-2.39421 6.08813-6.70378 10.67132-4.30957 4.51479-10.26088 7.18262-5.95132 2.59943-13.06553 2.59943-7.25103 0-13.20234-2.59943-5.95131-2.59942-10.19248-7.11421-4.24116-4.58319-6.63537-10.67132-2.39421-6.15653-2.46261-13.13393l0.13681-67.44822h12.03944l0.27362 67.44822q0.0684 4.44638 1.36812 8.55074 1.36812 4.10435 3.83073 7.25102 2.53102 3.14667 6.22494 5.06204 3.76232 1.91536 8.61914 1.91536t8.55074-1.84696q3.69391-1.91536 6.15653-5.06203 2.53101-3.21508 3.83073-7.31943 1.29971-4.10436 1.43652-8.55074l0.20522-67.44822z"/><path id="path2928" d="m489.77604 356.13862 0.13681 67.44822q-0.13681 6.9774-2.53102 13.06552-2.39421 6.08813-6.70378 10.67132-4.30957 4.51479-10.26088 7.18262-5.95132 2.59943-13.06553 2.59943-7.25102 0-13.20234-2.59943-5.95131-2.59942-10.19248-7.11421-4.24116-4.58319-6.63537-10.67132-2.3942-6.15653-2.46261-13.13393l0.13681-67.44822h12.03944l0.27362 67.44822q0.0684 4.44638 1.36812 8.55074 1.36812 4.10435 3.83073 7.25102 2.53102 3.14667 6.22494 5.06204 3.76232 1.91536 8.61914 1.91536t8.55074-1.84696q3.69392-1.91536 6.15653-5.06203 2.53102-3.21508 3.83073-7.31943 1.29971-4.10436 1.43652-8.55074l0.20522-67.44822z"/></g></g></svg>
