<svg id="svg8" version="1.1" viewBox="0 0 490.44992 457.10571" xmlns="http://www.w3.org/2000/svg"><title id="title2">ilmankosteus</title><g id="text1572" transform="matrix(1 0 0 1.1028643 0 -.5987639)" fill="#fff" stroke-width=".9522236" aria-label="ILMANKOSTEUS"><path id="path1598" d="m310.41857 30.225858c1.53705-15.17513 12.27566-24.40495 24.89712-24.40495 11.92986 0 16.54527 12.771067 19.06265 20.872157 10.37379 1.01687 22.43254 2.785393 22.43254 14.379443 0 11.1856-9.33642 18.98163-20.7476 18.98163h-44.95312c-9.50932 0-17.28967-4.6505-17.28967-14.91413 0-10.13823 9.16352-14.53451 16.59808-14.91415zm83.40374 122.069512c2.01549-20.01395 16.09677-32.18683 32.64697-32.18683 15.64334 0 25.71856 10.77365 29.01953 21.45788 13.6029 1.34112 25.39209 9.74323 25.39209 25.03421 0 14.7523-12.24261 25.03421-27.20581 25.03421h-58.94592c-12.46933 0-22.67151-6.13338-22.67151-19.66973 0-13.37095 12.0159-19.16906 21.76465-19.66974zm-273.61353-71.325648c-2.64056-26.335632-21.088868-42.353484-42.771787-42.353484-20.49481 0-33.694659 14.176652-38.019359 28.235656-17.821574 1.764729-33.266942 12.820753-33.266942 32.941595 0 19.412011 16.039416 32.941601 35.643155 32.941601h77.226823c16.33644 0 29.70263-8.07069 29.70263-25.88268 0-17.594344-15.74239-25.223856-28.51452-25.882688zm195.74391 144.687128c0.61658 31.19741-26.6718 58.53854-57.86814 57.92495m102.8767-64.36105c0.81546 37.812-14.15017 78.59466-47.9044 98.62513-34.51109 20.43342-78.34144 21.78959-115.8794 9.48635-34.50553-11.31857-59.46356-43.42718-65.0874-78.92257-6.68858-30.63518-0.0672-62.25415 12.27854-90.53549 24.04007-56.00685 56.54518-98.477263 94.51464-145.762963 8.04137-9.9316628 11.40024-4.1404145 18.47008 3.832768 37.0843 47.287242 71.92369 97.587985 93.45096 154.076725 5.63295 15.79307 10.06871 32.32253 10.15698 49.20005z" fill="#fff" stroke="#000" stroke-width="6.66556549"/></g><g id="text1446" stroke="#000" stroke-width="2" aria-label="ILMANKOSTEUS"><path id="path1475" d="m2.0779499 406.47771h29.5885171v5.41335h-11.734537v38.16247h11.734537v5.37973h-29.5885171v-5.37973h11.4655501v-38.16247h-11.4655501z"/><path id="path1477" d="m50.394655 450.1544h23.939801v5.27886h-30.160114v-48.95555h6.220313z"/><path id="path1479" d="m91.482348 406.47771 7.968726 24.47777 8.607566-24.47777h7.73336v48.95555h-6.05219v-19.53515l0.50435-20.44297-9.04467 26.36068h-3.564075l-8.304959-25.65459 0.504349 19.73688v19.53515h-6.052196v-48.95555z"/><path id="path1481" d="m149.31446 442.75727h-16.34094l-3.93392 12.67599h-6.22032l15.80296-48.95555h5.21162l15.53397 48.95555h-6.18669zm-14.65977-5.41336h13.01222l-6.45567-21.24993z"/><path id="path1483" d="m197.90014 455.43326h-6.32118l-18.99717-36.58217-0.10087 36.58217h-6.28756v-48.95555h6.32118l18.99717 36.51492 0.10087-36.51492h6.28756z"/><path id="path1485" d="m220.25965 432.7039-5.44698 6.18669v16.54267h-6.35481v-48.95555h6.35481v23.90618l4.74089-5.91771 14.35715-17.98847h7.56525l-17.11427 21.41805 18.25746 27.5375h-7.56525z"/><path id="path1487" d="m281.65583 433.77984q-0.0336 2.62262-0.47072 5.31249-0.40348 2.65624-1.27769 5.14436-0.87421 2.48813-2.25276 4.64002-1.34493 2.15189-3.22784 3.76581t-4.33741 2.55537q-2.42088 0.90783-5.44698 0.90783-3.02609 0-5.4806-0.90783-2.42087-0.94145-4.30378-2.55537t-3.26146-3.76581q-1.37856-2.18551-2.28639-4.67364-0.8742-2.48812-1.31131-5.14437-0.4371-2.65624-0.47072-5.27886v-5.58147q0.0336-2.62262 0.4371-5.27886 0.4371-2.68986 1.31131-5.17799 0.90783-2.48812 2.25276-4.64002 1.37856-2.18551 3.26146-3.79943 1.88291-1.64754 4.30379-2.55537 2.4545-0.94146 5.4806-0.94146t5.4806 0.94146q2.4545 0.90783 4.33741 2.52175 1.8829 1.61392 3.22783 3.79943 1.37856 2.15189 2.25277 4.64002 0.90783 2.48812 1.31131 5.17799 0.4371 2.68986 0.47072 5.31248zm-6.15306-5.64871q-0.0336-1.74842-0.23537-3.63132-0.20174-1.91653-0.70609-3.76581-0.47072-1.88291-1.27768-3.56407-0.80696-1.71479-2.0174-2.99248-1.21044-1.31131-2.85798-2.05102-1.64755-0.77334-3.83306-0.77334-2.15189 0-3.79944 0.77334-1.64754 0.77333-2.85798 2.08464-1.21044 1.27769-2.0174 2.99248-0.80696 1.68116-1.31131 3.56407-0.47072 1.84928-0.70609 3.76581-0.20174 1.88291-0.23536 3.5977v5.64871q0.0336 1.71479 0.23536 3.63132 0.23537 1.91653 0.73972 3.79944 0.50435 1.84928 1.31131 3.56407t2.01739 3.0261q1.21044 1.27768 2.85799 2.05102 1.64754 0.77333 3.83305 0.77333 2.18552 0 3.83306-0.77333 1.68117-0.77334 2.85798-2.05102 1.21044-1.31131 1.98378-2.99248 0.80696-1.71479 1.27769-3.56407 0.50435-1.88291 0.67246-3.79944 0.20174-1.91652 0.23537-3.66494z"/><path id="path1489" d="m316.72495 443.05988q0-2.25276-1.04233-3.79944-1.00869-1.54667-2.62261-2.58899-1.61392-1.07595-3.56408-1.78204-1.91652-0.70609-3.69856-1.27768-2.589-0.84059-5.27886-2.0174-2.65624-1.17682-4.87538-2.89161-2.18552-1.71479-3.5977-4.0348-1.37855-2.35363-1.37855-5.51422t1.37855-5.64872q1.41218-2.48812 3.66495-4.20291 2.25276-1.71479 5.11074-2.589 2.85798-0.90783 5.74959-0.90783 3.19421 0 6.15306 1.07595 2.95885 1.04232 5.24524 2.95885t3.66494 4.64002q1.37856 2.72349 1.4458 6.08582h-6.38843q-0.26898-2.11827-1.04232-3.83306-0.77333-1.74841-2.05102-2.99247-1.27769-1.24407-3.05972-1.91653-1.74841-0.70609-3.96755-0.70609-1.78204 0-3.49683 0.50435-1.68116 0.50435-3.0261 1.51305-1.31131 1.0087-2.11827 2.48812-0.77333 1.47943-0.77333 3.42958 0.0336 2.11827 1.07594 3.5977 1.04233 1.4458 2.62262 2.4545 1.61392 1.0087 3.4632 1.68116 1.88291 0.67247 3.53045 1.17682 1.81566 0.5716 3.66494 1.31131 1.84929 0.70609 3.56408 1.64754 1.71478 0.94145 3.19421 2.11827t2.589 2.68987q1.10956 1.47942 1.71478 3.29508 0.63885 1.78204 0.63885 3.96755 0 3.29509-1.47943 5.74959-1.4458 2.4545-3.76581 4.10204-2.32001 1.61392-5.24524 2.4545-2.92523 0.80696-5.85045 0.80696-3.26147 0-6.38843-1.0087-3.12697-1.00869-5.6151-2.8916-2.4545-1.91653-4.00117-4.64002-1.54667-2.75711-1.64754-6.25393h6.3548q0.30261 2.28638 1.24406 4.06842 0.94146 1.74841 2.42088 2.99247 1.47943 1.21044 3.39596 1.84928 1.95015 0.60522 4.23654 0.60522 1.81566 0 3.56407-0.4371 1.78203-0.47073 3.16059-1.41218 1.37856-0.97507 2.25276-2.42088 0.87421-1.47942 0.87421-3.49682z"/><path id="path1491" d="m365.41151 411.79019h-15.1305v43.64307h-6.05219v-43.64307h-15.13049v-5.31248h36.31318z"/><path id="path1493" d="m400.61511 432.80477h-20.44297v17.34963h23.83893v5.27886h-30.05924v-48.95555h29.75663v5.31248h-23.53632v15.73572h20.44297z"/><path id="path1495" d="m445.70398 406.47771 0.0672 33.15259q-0.0672 3.42958-1.24406 6.42205-1.17681 2.99248-3.29508 5.24524-2.11827 2.21914-5.0435 3.53045-2.92523 1.27768-6.42205 1.27768-3.56408 0-6.4893-1.27768-2.92523-1.27769-5.00988-3.49683-2.08464-2.25276-3.26146-5.24523-1.17682-3.0261-1.21044-6.45568l0.0673-33.15259h5.9177l0.13449 33.15259q0.0336 2.18552 0.67247 4.20291 0.67247 2.0174 1.88291 3.56408 1.24406 1.54667 3.05972 2.48812 1.84928 0.94145 4.23654 0.94145 2.38725 0 4.20291-0.90783 1.81566-0.94145 3.0261-2.48812 1.24406-1.5803 1.8829-3.5977 0.63885-2.01739 0.70609-4.20291l0.10087-33.15259z"/><path id="path1497" d="m481.88266 443.05988q0-2.25276-1.04232-3.79944-1.0087-1.54667-2.62262-2.58899-1.61392-1.07595-3.56407-1.78204-1.91653-0.70609-3.69856-1.27768-2.589-0.84059-5.27887-2.0174-2.65624-1.17682-4.87538-2.89161-2.18551-1.71479-3.59769-4.0348-1.37856-2.35363-1.37856-5.51422t1.37856-5.64872q1.41218-2.48812 3.66494-4.20291t5.11074-2.589q2.85799-0.90783 5.74959-0.90783 3.19422 0 6.15307 1.07595 2.95885 1.04232 5.24524 2.95885 2.28638 1.91653 3.66494 4.64002 1.37855 2.72349 1.4458 6.08582h-6.38843q-0.26899-2.11827-1.04232-3.83306-0.77334-1.74841-2.05103-2.99247-1.27768-1.24407-3.05972-1.91653-1.74841-0.70609-3.96755-0.70609-1.78203 0-3.49682 0.50435-1.68117 0.50435-3.0261 1.51305-1.31131 1.0087-2.11827 2.48812-0.77334 1.47943-0.77334 3.42958 0.0336 2.11827 1.07595 3.5977 1.04232 1.4458 2.62262 2.4545 1.61392 1.0087 3.4632 1.68116 1.8829 0.67247 3.53045 1.17682 1.81566 0.5716 3.66494 1.31131 1.84928 0.70609 3.56407 1.64754t3.19422 2.11827q1.47942 1.17682 2.58899 2.68987 1.10957 1.47942 1.71479 3.29508 0.63884 1.78204 0.63884 3.96755 0 3.29509-1.47942 5.74959-1.44581 2.4545-3.76581 4.10204-2.32001 1.61392-5.24524 2.4545-2.92523 0.80696-5.85046 0.80696-3.26146 0-6.38843-1.0087-3.12697-1.00869-5.61509-2.8916-2.4545-1.91653-4.00118-4.64002-1.54667-2.75711-1.64754-6.25393h6.35481q0.30261 2.28638 1.24406 4.06842 0.94145 1.74841 2.42088 2.99247 1.47942 1.21044 3.39595 1.84928 1.95016 0.60522 4.23654 0.60522 1.81566 0 3.56407-0.4371 1.78204-0.47073 3.16059-1.41218 1.37856-0.97507 2.25277-2.42088 0.8742-1.47942 0.8742-3.49682z"/></g></svg>
