<svg id="svg8" version="1.1" viewBox="0 0 490.44992 457.10571" xmlns="http://www.w3.org/2000/svg"><title id="title2">ilmanpaine</title><path id="path1670" d="m147.88842 360.18076 147.43771-3.3e-4 65.79478-1.5e-4m-106.61625-3.15318v-357.0271m214.37879 29.115556c-1.68073-15.73155-13.42309-25.2997959-27.22428-25.2997959-13.04497 0-18.09179 13.2393389-20.84448 21.6374679-11.34344 1.054154-24.52934 2.887524-24.52934 14.906687 0 11.595738 10.20912 19.677621 22.68691 19.677621h49.15495c10.39817 0 18.90577-4.821017 18.90577-15.46098 0-10.509964-10.02006-15.06744-18.14953-15.461zm-102.69911 126.545374c-2.3132-20.74778-18.47444-33.367-37.4693-33.367-17.95403 0-29.51748 11.16868-33.30605 22.24466-15.61219 1.3903-29.14278 10.10049-29.14278 25.95213 0 15.29322 14.05098 25.95214 31.22442 25.95214h67.6529c14.31118 0 26.02035-6.35828 26.02035-20.39095 0-13.86122-13.79078-19.87193-24.97954-20.39098zm-327.539788-73.940908c3.26222-27.301268 26.053752-43.90644 52.84142-43.90644 25.319838 0 41.627288 14.696462 46.970148 29.270961 22.01725 1.829436 41.09887 13.290846 41.09887 34.149457 0 20.12378-19.81552 34.14945-44.03451 34.14945h-95.408104c-20.182484 0-36.695431-8.36662-36.695431-26.83171 0-18.239468 19.448567-26.148728 35.227607-26.831718z" fill="#fff" stroke="#000" stroke-width="7"/><g><g id="text2124" stroke-width=".99999994" aria-label="ILMANPAINE"><path id="path2126" d="m0.68125737 397.53476h36.00442363v6.58717h-14.279027v46.43752h14.279027v6.54626h-36.00442363v-6.54626h13.95171463v-46.43752h-13.95171463z"/><path id="path2128" d="m59.474847 450.6822h29.130852v6.42351h-36.699964v-59.57095h7.569112z"/><path id="path2130" d="m109.4719 397.53476 9.69665 29.78547 10.47401-29.78547h9.41025v59.57095h-7.36454v-23.7711l0.61371-24.87578-11.0059 32.07666h-4.3369l-10.10578-31.21747 0.61371 24.01659v23.7711h-7.36454v-59.57095z"/><path id="path2132" d="m179.84418 441.68109h-19.88426l-4.78695 15.42462h-7.56911l19.22964-59.57095h6.34168l18.90233 59.57095h-7.5282zm-17.83855-6.58717h15.83376l-7.85551-25.85773z"/><path id="path2134" d="m238.96509 457.10571h-7.69186l-23.11647-44.51456-0.12275 44.51456h-7.65094v-59.57095h7.69186l23.11647 44.43273 0.12275-44.43273h7.65094z"/><path id="path2136" d="m260.1586 433.21187v23.89384h-7.56911v-59.57095h19.31146q4.00959 0.0818 7.56912 1.26833 3.60044 1.18651 6.30077 3.43679t4.25507 5.56432q1.59565 3.31404 1.59565 7.61003 0 4.29598-1.59565 7.61002-1.55474 3.27313-4.25507 5.52341-2.70033 2.25027-6.30077 3.43678-3.55953 1.18651-7.56912 1.22743zm0-6.21895h11.74235q2.61851-0.0409 4.82787-0.81828 2.20936-0.81828 3.84593-2.29119 1.63656-1.47291 2.53667-3.55953 0.94103-2.12753 0.94103-4.82787 0-2.70033-0.94103-4.86878-0.90011-2.16844-2.53667-3.68227-1.59565-1.51382-3.84593-2.3321-2.20936-0.81828-4.82787-0.8592h-11.74235z"/><path id="path2138" d="m330.5718 441.68109h-19.88426l-4.78695 15.42462h-7.56911l19.22963-59.57095h6.34169l18.90232 59.57095h-7.5282zm-17.83856-6.58717h15.83377l-7.85551-25.85773z"/><path id="path2140" d="m352.37901 397.53476h36.00443v6.58717h-14.27903v46.43752h14.27903v6.54626h-36.00443v-6.54626h13.95172v-46.43752h-13.95172z"/><path id="path2142" d="m439.93524 457.10571h-7.69185l-23.11648-44.51456-0.12274 44.51456h-7.65094v-59.57095h7.69185l23.11648 44.43273 0.12274-44.43273h7.65094z"/><path id="path2144" d="m485.63633 429.57051h-24.87579v21.11169h29.00811v6.42351h-36.57722v-59.57095h36.209v6.46443h-28.63989v19.1478h24.87579z"/></g><path id="path2151" d="m254.50466 357.0271-106.93165-131.724" fill="#fff" stroke="#000" stroke-width="7"/><path id="path2157" d="m254.50466 357.0271 106.38153-131.724" fill="#fff" stroke="#000" stroke-width="7"/></g></svg>
