<svg id="svg8" version="1.1" viewBox="0 0 490.44992 457.10571" xmlns="http://www.w3.org/2000/svg"><title id="title2">tuuli</title><g id="text1438" aria-label="TUULI"><path id="path1448" d="m296.33775 86.26051c-33.20912-32.240774-88.56562-49.576833-121.61274-61.21568m59.60274 95.1883c32.06519 21.79371 74.33025 18.68794 106.30505 40.18247 19.94585 19.36596 11.12682-23.6632 8.66213-34.32421-8.70276-35.454512-19.30932-73.093844-45.08567-100.180379-22.85814-22.7788252-63.56443-32.7372963-89.51612-9.449544-26.9098 23.914618-21.27781 68.813442 4.3084 91.541543 4.65691 4.60447 9.82687 8.67888 15.32621 12.23012zm165.71219 102.09043c-62.12196 19.04235-91.88504 44.06735-122.96978 45.78466m81.18798-77.60612c17.91553-7.404 38.20052-9.37949 57.33653-8.95031 8.79592 0.19727 24.04984-0.37592 29.47766 0.0348 9.65319 0.73049 19.20993-3.61183 28.13034-7.2452 23.47128-14.89887-0.0609 20.4474-4.64471 30.3832-15.7397 32.93967-33.78819 67.63074-64.53989 88.90122-27.0175 17.64722-68.89874 19.10843-89.56487-8.97574-21.47653-28.89299-11.03888-63.26705 18.63921-80.30912 5.4969-3.55976 19.0585-11.4818 25.16573-13.83887zm-218.21055-23.718c-33.20913 32.24078-107.116264 72.70275-132.3511819 81.92552m165.9077919-135.37076c19.94585-19.365971 11.12682 23.66319 8.66213 34.32421-8.70277 35.4545-19.30933 73.09384-45.08567 100.18037-22.85814 22.77883-63.564435 32.7373-89.516124 9.44954-26.909797-23.91461-21.277811-68.81344 4.308407-91.54154 33.131766-35.03566 89.924217-32.1985 121.631257-52.41258z" fill="#fff" stroke="#000" stroke-width="7"/></g><g fill="none" stroke="#000"><path id="path2876" transform="matrix(1.2135208,0,0,1.3096799,-59.790491,-75.198234)" d="m242.4169 213.31921c3.02143 1.03004 0.1022 4.58102-1.71199 5.02182-4.91633 1.19456-8.41958-4.1328-8.33164-8.44579 0.15729-7.71494 8.06313-12.4956 15.1796-11.64148 10.44369 1.25346 16.65467 12.03315 14.9513 21.91341-2.27032 13.16882-16.01546 20.84686-28.64721 18.26113-15.89577-3.25388-25.05573-20.0032-21.57097-35.38102 4.22052-18.6246 23.9939-29.27416 42.11483-24.88079 21.35489 5.17744 33.4986 27.98644 28.19062 48.84863-6.12826 24.08623-31.9802 37.72703-55.58244 31.50045-26.81836-7.07503-41.95825-35.97483-34.81028-62.31624 8.01895-29.55109 39.9701-46.19153 69.05005-38.12011 32.28427 8.9608 50.42632 43.96584 41.42994 75.78386" stroke-width="5.55254221"/><path id="path2876-6" transform="matrix(-1.1161755 .47621953 -.51395505 -1.204621 798.3873 228.85725)" d="m242.4169 213.31921c3.02143 1.03004 0.1022 4.58102-1.71199 5.02182-4.91633 1.19456-8.41958-4.1328-8.33164-8.44579 0.15729-7.71494 8.06313-12.4956 15.1796-11.64148 10.44369 1.25346 16.65467 12.03315 14.9513 21.91341-2.27032 13.16882-16.01546 20.84686-28.64721 18.26113-15.89577-3.25388-25.05573-20.0032-21.57097-35.38102 4.22052-18.6246 23.9939-29.27416 42.11483-24.88079 21.35489 5.17744 33.4986 27.98644 28.19062 48.84863-6.12826 24.08623-31.9802 37.72703-55.58244 31.50045-26.81836-7.07503-41.95825-35.97483-34.81028-62.31624 8.01895-29.55109 39.9701-46.19153 69.05005-38.12011 32.28427 8.9608 50.42632 43.96584 41.42994 75.78386" stroke-width="5.55254221"/><path id="path2876-9" transform="matrix(.48764931 .92915695 -1.0147152 .49721505 205.31547 -264.31283)" d="m242.4169 213.31921c3.02143 1.03004 0.1022 4.58102-1.71199 5.02182-4.91633 1.19456-8.41958-4.1328-8.33164-8.44579 0.15729-7.71494 8.06313-12.4956 15.1796-11.64148 10.44369 1.25346 16.65467 12.03315 14.9513 21.91341-2.27032 13.16882-16.01546 20.84686-28.64721 18.26113-15.89577-3.25388-25.05573-20.0032-21.57097-35.38102 4.22052-18.6246 23.9939-29.27416 42.11483-24.88079 21.35489 5.17744 33.4986 27.98644 28.19062 48.84863-6.12826 24.08623-31.9802 37.72703-55.58244 31.50045-26.81836-7.07503-41.95825-35.97483-34.81028-62.31624 8.01895-29.55109 39.9701-46.19153 69.05005-38.12011 32.28427 8.9608 50.42632 43.96584 41.42994 75.78386" stroke-width="6.42960978"/></g><g id="text2901" aria-label="TUULI"><path id="path2903" d="m91.147901 348.21907h-37.176772v107.23433h-14.870709v-107.23433h-37.176771v-13.05318h89.224252z"/><path id="path2905" d="m186.98136 335.16589 0.16523 81.45844q-0.16523 8.42673-3.05676 15.77947t-8.09628 12.88795q-5.20474 5.45259-12.39225 8.67458-7.18751 3.13937-15.77948 3.13937-8.75719 0-15.9447-3.13937t-12.30964-8.59197q-5.12214-5.5352-8.01366-12.88794-2.89153-7.43536-2.97414-15.86209l0.16523-81.45844h14.54024l0.33046 81.45844q0.0826 5.36998 1.65231 10.32688 1.6523 4.9569 4.62644 8.75719 3.05675 3.8003 7.51797 6.11352 4.54382 2.31322 10.40949 2.31322t10.32688-2.23061q4.46122-2.31322 7.43536-6.11351 3.05676-3.88291 4.62644-8.83981 1.56969-4.9569 1.73492-10.32688l0.24784-81.45844z"/><path id="path2907" d="m288.43263 335.16589 0.16523 81.45844q-0.16523 8.42673-3.05675 15.77947-2.89153 7.35274-8.09628 12.88795-5.20474 5.45259-12.39225 8.67458-7.18751 3.13937-15.77948 3.13937-8.75719 0-15.9447-3.13937t-12.30964-8.59197q-5.12214-5.5352-8.01366-12.88794-2.89153-7.43536-2.97415-15.86209l0.16523-81.45844h14.54025l0.33046 81.45844q0.0826 5.36998 1.6523 10.32688 1.6523 4.9569 4.62645 8.75719 3.05675 3.8003 7.51797 6.11352 4.54382 2.31322 10.40949 2.31322t10.32688-2.23061q4.46122-2.31322 7.43536-6.11351 3.05675-3.88291 4.62644-8.83981t1.73492-10.32688l0.24784-81.45844z"/><path id="path2909" d="m331.64029 442.48284h58.82191v12.97056h-74.10569v-120.28751h15.28378z"/><path id="path2911" d="m415.82504 335.16589h72.70124v13.30102h-28.83265v93.76808h28.83265v13.21841h-72.70124v-13.21841h28.17173v-93.76808h-28.17173z"/></g></svg>
